<svg width="100%" viewBox="0 0 1600 340" xmlns="http://www.w3.org/2000/svg" preserveAspectRatio="xMidYMid meet">
    <defs>
        <!-- Import custom font from Google Fonts -->
        <style>
            @import url('https://fonts.googleapis.com/css2?family=IBM+Plex+Mono:wght@400;700&amp;display=swap');

            /* Use clamp(min, preferred vw, max) so text doesn't get too small in narrow previews */
            .header-title {
                font-family: 'IBM Plex Mono', Monaco, Menlo, 'Ubuntu Mono', monospace;
                font-weight: 700;
                font-size: clamp(70px, 8vw, 150px);
                letter-spacing: .05em;
                /* black outline */
                stroke: #000;
                stroke-width: 4px;
                paint-order: stroke fill;
                stroke-linejoin: round;
            }

            .header-subtitle {
                font-family: 'IBM Plex Mono', Monaco, Menlo, 'Ubuntu Mono', monospace;
                font-weight: 400;
                font-size: clamp(30px, 3.2vw, 60px);
                /* subtle black outline */
                stroke: #000;
                stroke-width: 2px;
                paint-order: stroke fill;
                stroke-linejoin: round;
            }


            .header-link {
                font-family: 'IBM Plex Mono', Monaco, Menlo, 'Ubuntu Mono', monospace;
                font-weight: 400;
                font-size: clamp(20px, 2.5vw, 45px);
                /* subtle black outline */
                stroke: #000;
                stroke-width: 2px;
                paint-order: stroke fill;
                stroke-linejoin: round;
            }


            .waves {
                transform: translateY(0);
            }

            .wave {
                animation: waveMove 22s linear infinite;
            }

            .wave.wave2 {
                animation-duration: 16s;
                animation-direction: reverse;
                opacity: .6;
            }

            .wave.wave3 {
                animation-duration: 30s;
                opacity: .4;
            }

            @keyframes waveMove {
                from {
                    transform: translateX(0);
                }

                to {
                    transform: translateX(-1200px);
                }
            }

            /* Sparkle glints riding the wave surface */
            .glint {
                animation: glintFade 2.8s ease-in-out infinite;
            }

            @keyframes glintFade {

                0%,
                100% {
                    opacity: 0;
                }

                50% {
                    opacity: .7;
                }
            }

            /* Stars */
            .stars circle {
                animation: twinkle 4s ease-in-out infinite;
            }

            .stars circle:nth-child(3n) {
                animation-duration: 5.5s;
                animation-delay: 1s;
            }

            .stars circle:nth-child(4n) {
                animation-duration: 6.2s;
                animation-delay: 2s;
            }

            .stars circle:nth-child(5n) {
                animation-duration: 7.1s;
                animation-delay: 1.5s;
            }

            @keyframes twinkle {

                0%,
                100% {
                    opacity: .15;
                }

                50% {
                    opacity: .9;
                }
            }

            /* Moon */
            .moon-glow {
                animation: moonPulse 5s ease-in-out infinite;
                transform-origin: 1420px 60px;
            }

            @keyframes moonPulse {

                0%,
                100% {
                    opacity: .5;
                    transform: scale(1);
                }

                50% {
                    opacity: .85;
                    transform: scale(1.08);
                }
            }

            /* Ships bobbing on the swell */
            .ship-bob {
                animation: shipBob 7s ease-in-out infinite;
            }

            .ship2 .ship-bob {
                animation-duration: 9s;
                animation-delay: 1.5s;
            }

            .ship3 .ship-bob {
                animation-duration: 8s;
                animation-delay: .8s;
            }

            @keyframes shipBob {

                0%,
                100% {
                    transform: translateY(0) rotate(-1.2deg);
                }

                50% {
                    transform: translateY(4px) rotate(1.4deg);
                }
            }
        </style>

        <radialGradient id="moonGlow" cx="50%" cy="50%" r="50%">
            <stop offset="0%" stop-color="#fffbe0" stop-opacity="0.9" />
            <stop offset="60%" stop-color="#fffbe0" stop-opacity="0.25" />
            <stop offset="100%" stop-color="#fffbe0" stop-opacity="0" />
        </radialGradient>

        <radialGradient id="moonBody" cx="35%" cy="35%" r="65%">
            <stop offset="0%" stop-color="#ffffff" />
            <stop offset="100%" stop-color="#f0ecd6" />
        </radialGradient>
    </defs>
    <g class="stars" aria-hidden="true">
        <circle cx="50" cy="30" r="2" fill="#ffffff" />
        <circle cx="140" cy="60" r="1.5" fill="#ffffff" />
        <circle cx="220" cy="25" r="1.8" fill="#ffffff" />
        <circle cx="310" cy="55" r="1.2" fill="#ffffff" />
        <circle cx="400" cy="35" r="1.6" fill="#ffffff" />
        <circle cx="480" cy="20" r="2.2" fill="#ffffff" />
        <circle cx="560" cy="50" r="1.4" fill="#ffffff" />
        <circle cx="640" cy="28" r="1.9" fill="#ffffff" />
        <circle cx="720" cy="48" r="1.3" fill="#ffffff" />
        <circle cx="800" cy="22" r="2" fill="#ffffff" />
        <circle cx="880" cy="42" r="1.7" fill="#ffffff" />
        <circle cx="960" cy="18" r="1.5" fill="#ffffff" />
        <circle cx="1040" cy="40" r="2.1" fill="#ffffff" />
        <circle cx="1120" cy="26" r="1.4" fill="#ffffff" />
        <circle cx="1210" cy="45" r="1.8" fill="#ffffff" />
        <circle cx="1290" cy="20" r="1.3" fill="#ffffff" />
        <circle cx="1360" cy="105" r="1.6" fill="#ffffff" />
        <circle cx="1490" cy="35" r="2" fill="#ffffff" />
        <circle cx="1555" cy="70" r="1.4" fill="#ffffff" />
        <circle cx="90" cy="95" r="1" fill="#ffffff" />
        <circle cx="180" cy="110" r="0.9" fill="#ffffff" />
        <circle cx="265" cy="90" r="0.8" fill="#ffffff" />
        <circle cx="350" cy="125" r="1" fill="#ffffff" />
        <circle cx="430" cy="105" r="0.85" fill="#ffffff" />
        <circle cx="515" cy="140" r="0.95" fill="#ffffff" />
        <circle cx="600" cy="100" r="0.9" fill="#ffffff" />
        <circle cx="685" cy="115" r="0.8" fill="#ffffff" />
        <circle cx="770" cy="135" r="1" fill="#ffffff" />
        <circle cx="855" cy="100" r="0.85" fill="#ffffff" />
        <circle cx="940" cy="120" r="0.9" fill="#ffffff" />
        <circle cx="1025" cy="95" r="0.75" fill="#ffffff" />
        <circle cx="1110" cy="130" r="0.9" fill="#ffffff" />
        <circle cx="1195" cy="100" r="0.8" fill="#ffffff" />
        <circle cx="1270" cy="130" r="1" fill="#ffffff" />
        <circle cx="1430" cy="135" r="0.9" fill="#ffffff" />
        <circle cx="1520" cy="115" r="0.85" fill="#ffffff" />
        <circle cx="30" cy="150" r="1.1" fill="#ffffff" />
        <circle cx="115" cy="170" r="0.8" fill="#ffffff" />
        <circle cx="200" cy="155" r="1" fill="#ffffff" />
        <circle cx="620" cy="165" r="0.85" fill="#ffffff" />
        <circle cx="750" cy="15" r="1.2" fill="#ffffff" />
        <circle cx="990" cy="70" r="1" fill="#ffffff" />
        <circle cx="1160" cy="65" r="1.3" fill="#ffffff" />
        <circle cx="380" cy="15" r="1" fill="#ffffff" />
        <circle cx="10" cy="60" r="1.4" fill="#ffffff" />
        <circle cx="1340" cy="55" r="1.1" fill="#ffffff" />
        <circle cx="1575" cy="150" r="1" fill="#ffffff" />
        <circle cx="1250" cy="165" r="0.8" fill="#ffffff" />
    </g>

    <!-- Shining moon -->
    <g class="moon" aria-hidden="true">
        <circle class="moon-glow" cx="1420" cy="60" r="70" fill="url(#moonGlow)" />
        <circle cx="1420" cy="60" r="26" fill="url(#moonBody)" />
        <circle cx="1412" cy="51" r="4" fill="#dcd6b8" opacity="0.5" />
        <circle cx="1429" cy="57" r="2.5" fill="#dcd6b8" opacity="0.4" />
        <circle cx="1416" cy="69" r="3" fill="#dcd6b8" opacity="0.4" />
        <circle cx="1432" cy="70" r="1.8" fill="#dcd6b8" opacity="0.35" />
    </g>

    <!-- Main title: Kenny Reyes -->
    <text x="800" y="115" class="header-title" fill="#ffffff" text-anchor="middle" dominant-baseline="middle">
        Kenny Reyes
    </text>

    <!-- Subtitle: Full Stack Developer - Aspiring DevOps Engineer -->
    <text x="800" y="200" class="header-subtitle" fill="#ffffff" text-anchor="middle" dominant-baseline="middle">
        Full Stack Developer - Aspiring DevOps Engineer
    </text>

    <text x="800" y="250" class="header-link" fill="#ffffff" text-anchor="middle" dominant-baseline="middle">
        kennyreyes.dev
    </text>

    <!-- Animated Ocean Waves -->
    <g class="waves" aria-hidden="true">
        <!-- Deep background swell (slowest, darkest) -->
        <g class="wave wave3">
            <path
                d="M0 265 Q 100 250 200 265 T 400 265 T 600 265 T 800 265 T 1000 265 T 1200 265 V340 H0 Z"
                fill="#0b3d91" fill-opacity="0.35" />
            <path
                d="M1200 265 Q 1300 250 1400 265 T 1600 265 T 1800 265 T 2000 265 T 2200 265 T 2400 265 V340 H1200 Z"
                fill="#0b3d91" fill-opacity="0.35" />
            <path
                d="M2400 265 Q 2500 250 2600 265 T 2800 265 T 3000 265 T 3200 265 T 3400 265 T 3600 265 V340 H2400 Z"
                fill="#0b3d91" fill-opacity="0.35" />
        </g>
        <!-- First wave layer -->
        <g class="wave wave1">
            <path
                d="M0 285 Q 60 273 120 285 T 240 285 T 360 285 T 480 285 T 600 285 T 720 285 T 840 285 T 960 285 T 1080 285 T 1200 285 V340 H0 Z"
                fill="#1E90FF" fill-opacity="0.3" />
            <path
                d="M1200 285 Q 1260 273 1320 285 T 1440 285 T 1560 285 T 1680 285 T 1800 285 T 1920 285 T 2040 285 T 2160 285 T 2280 285 T 2400 285 V340 H1200 Z"
                fill="#1E90FF" fill-opacity="0.3" />
            <path
                d="M2400 285 Q 2460 273 2520 285 T 2640 285 T 2760 285 T 2880 285 T 3000 285 T 3120 285 T 3240 285 T 3360 285 T 3480 285 T 3600 285 V340 H2400 Z"
                fill="#1E90FF" fill-opacity="0.3" />
            <!-- broken crest highlight for randomized texture -->
            <path
                d="M0 285 Q 60 273 120 285 T 240 285 T 360 285 T 480 285 T 600 285 T 720 285 T 840 285 T 960 285 T 1080 285 T 1200 285"
                fill="none" stroke="#bfe6ff" stroke-opacity="0.45" stroke-width="2" stroke-linecap="round"
                stroke-dasharray="18 26 7 40 12 22" />
            <path
                d="M1200 285 Q 1260 273 1320 285 T 1440 285 T 1560 285 T 1680 285 T 1800 285 T 1920 285 T 2040 285 T 2160 285 T 2280 285 T 2400 285"
                fill="none" stroke="#bfe6ff" stroke-opacity="0.45" stroke-width="2" stroke-linecap="round"
                stroke-dasharray="26 14 38 9 20 31" />
            <path
                d="M2400 285 Q 2460 273 2520 285 T 2640 285 T 2760 285 T 2880 285 T 3000 285 T 3120 285 T 3240 285 T 3360 285 T 3480 285 T 3600 285"
                fill="none" stroke="#bfe6ff" stroke-opacity="0.45" stroke-width="2" stroke-linecap="round"
                stroke-dasharray="11 33 24 17 8 42" />
            <!-- sub-surface ripple lines -->
            <path
                d="M0 296 Q 60 292 120 296 T 240 296 T 360 296 T 480 296 T 600 296 T 720 296 T 840 296 T 960 296 T 1080 296 T 1200 296"
                fill="none" stroke="#9fd4ff" stroke-opacity="0.25" stroke-width="1.2" stroke-linecap="round"
                stroke-dasharray="6 34 14 50" />
            <path
                d="M1200 296 Q 1260 292 1320 296 T 1440 296 T 1560 296 T 1680 296 T 1800 296 T 1920 296 T 2040 296 T 2160 296 T 2280 296 T 2400 296"
                fill="none" stroke="#9fd4ff" stroke-opacity="0.25" stroke-width="1.2" stroke-linecap="round"
                stroke-dasharray="21 43 9 28" />
            <path
                d="M2400 296 Q 2460 292 2520 296 T 2640 296 T 2760 296 T 2880 296 T 3000 296 T 3120 296 T 3240 296 T 3360 296 T 3480 296 T 3600 296"
                fill="none" stroke="#9fd4ff" stroke-opacity="0.25" stroke-width="1.2" stroke-linecap="round"
                stroke-dasharray="15 27 31 46" />
        </g>

        <!-- Ships bobbing between the wave layers -->
        <g class="ships" aria-hidden="true">
            <g class="ship ship1" transform="translate(300 278)">
                <g class="ship-bob">
                    <path d="M-34 0 Q 0 8 34 0 L26 14 Q 0 20 -26 14 Z" fill="#0d1b2a" />
                    <rect x="-1.5" y="-38" width="3" height="38" fill="#0d1b2a" />
                    <path d="M3 -36 L3 -4 L26 -4 Z" fill="#dfe9f5" opacity="0.9" />
                    <path d="M-3 -30 L-3 -4 L-20 -4 Z" fill="#c9d9ec" opacity="0.85" />
                    <circle cx="0" cy="-40" r="1.6" fill="#ffd27f" />
                </g>
            </g>
            <g class="ship ship2" transform="translate(880 274) scale(0.7)" opacity="0.85">
                <g class="ship-bob">
                    <path d="M-34 0 Q 0 8 34 0 L26 14 Q 0 20 -26 14 Z" fill="#0d1b2a" />
                    <rect x="-1.5" y="-38" width="3" height="38" fill="#0d1b2a" />
                    <path d="M3 -36 L3 -4 L26 -4 Z" fill="#dfe9f5" opacity="0.9" />
                    <path d="M-3 -30 L-3 -4 L-20 -4 Z" fill="#c9d9ec" opacity="0.85" />
                    <circle cx="0" cy="-40" r="1.6" fill="#ffd27f" />
                </g>
            </g>
            <g class="ship ship3" transform="translate(1380 271) scale(0.55)" opacity="0.7">
                <g class="ship-bob">
                    <path d="M-34 0 Q 0 8 34 0 L26 14 Q 0 20 -26 14 Z" fill="#0d1b2a" />
                    <rect x="-1.5" y="-38" width="3" height="38" fill="#0d1b2a" />
                    <path d="M3 -36 L3 -4 L26 -4 Z" fill="#dfe9f5" opacity="0.9" />
                    <path d="M-3 -30 L-3 -4 L-20 -4 Z" fill="#c9d9ec" opacity="0.85" />
                    <circle cx="0" cy="-40" r="1.6" fill="#ffd27f" />
                </g>
            </g>
        </g>

        <!-- Second wave layer (front, overlaps ship hulls for depth) -->
        <g class="wave wave2">
            <path
                d="M0 300 Q 75 290 150 300 T 300 300 T 450 300 T 600 300 T 750 300 T 900 300 T 1050 300 T 1200 300 T 1350 300 T 1500 300 V340 H0 Z"
                fill="#0099FF" fill-opacity="0.45" />
            <path
                d="M1500 300 Q 1575 290 1650 300 T 1800 300 T 1950 300 T 2100 300 T 2250 300 T 2400 300 T 2550 300 T 2700 300 T 2850 300 T 3000 300 V340 H1500 Z"
                fill="#0099FF" fill-opacity="0.45" />
            <!-- broken crest highlight for randomized texture -->
            <path
                d="M0 300 Q 75 290 150 300 T 300 300 T 450 300 T 600 300 T 750 300 T 900 300 T 1050 300 T 1200 300 T 1350 300 T 1500 300"
                fill="none" stroke="#e0f7ff" stroke-opacity="0.5" stroke-width="1.5" stroke-linecap="round"
                stroke-dasharray="10 18 22 30 6 26" />
            <path
                d="M1500 300 Q 1575 290 1650 300 T 1800 300 T 1950 300 T 2100 300 T 2250 300 T 2400 300 T 2550 300 T 2700 300 T 2850 300 T 3000 300"
                fill="none" stroke="#e0f7ff" stroke-opacity="0.5" stroke-width="1.5" stroke-linecap="round"
                stroke-dasharray="28 12 16 35 9 22" />
            <!-- sub-surface ripple lines -->
            <path
                d="M0 314 Q 75 311 150 314 T 300 314 T 450 314 T 600 314 T 750 314 T 900 314 T 1050 314 T 1200 314 T 1350 314 T 1500 314"
                fill="none" stroke="#bde8ff" stroke-opacity="0.2" stroke-width="1" stroke-linecap="round"
                stroke-dasharray="8 40 18 29" />
            <path
                d="M1500 314 Q 1575 311 1650 314 T 1800 314 T 1950 314 T 2100 314 T 2250 314 T 2400 314 T 2550 314 T 2700 314 T 2850 314 T 3000 314"
                fill="none" stroke="#bde8ff" stroke-opacity="0.2" stroke-width="1" stroke-linecap="round"
                stroke-dasharray="24 15 37 11" />
        </g>

        <!-- Sparkling glints on the water surface (moonlight reflection) -->
        <g class="glints" fill="#ffffff">
            <circle class="glint" cx="150" cy="297" r="1.5" style="animation-delay:0s" />
            <circle class="glint" cx="340" cy="303" r="1.2" style="animation-delay:.4s" />
            <circle class="glint" cx="560" cy="296" r="1.6" style="animation-delay:.8s" />
            <circle class="glint" cx="780" cy="304" r="1.3" style="animation-delay:1.2s" />
            <circle class="glint" cx="960" cy="297" r="1.5" style="animation-delay:.6s" />
            <circle class="glint" cx="1080" cy="302" r="1.8" style="animation-delay:1.6s" />
            <circle class="glint" cx="1220" cy="309" r="1.3" style="animation-delay:2s" />
            <circle class="glint" cx="1350" cy="298" r="1.5" style="animation-delay:.3s" />
            <circle class="glint" cx="1430" cy="306" r="1.7" style="animation-delay:1.4s" />
            <circle class="glint" cx="1390" cy="315" r="1.4" style="animation-delay:.9s" />
            <circle class="glint" cx="1460" cy="312" r="1.2" style="animation-delay:1.8s" />
            <circle class="glint" cx="1540" cy="300" r="1.4" style="animation-delay:.5s" />
        </g>
    </g>
</svg>
