<svg width="30" height="30" viewBox="0 0 30 30" fill="none" xmlns="http://www.w3.org/2000/svg">
<path fill-rule="evenodd" clip-rule="evenodd" d="M17.2969 11.9062H19.9453V14.6016H21.2812C21.8906 14.6016 22.5234 14.4844 23.1094 14.2969C23.3906 14.2031 23.7187 14.0625 24 13.8984C23.625 13.4062 23.4375 12.7969 23.3906 12.1875C23.3203 11.3672 23.4844 10.2891 24.0469 9.65625L24.3281 9.32812L24.6562 9.58594C25.5 10.2656 26.1797 11.1797 26.3203 12.2578C27.3281 11.9531 28.5 12.0234 29.3906 12.5391L29.7422 12.75L29.5547 13.125C28.8047 14.5781 27.2344 15.0469 25.7109 14.9531C23.414 20.6484 18.4453 23.3437 12.3984 23.3437C9.28123 23.3437 6.42186 22.1719 4.78123 19.4063L4.75779 19.3594L4.52342 18.8672C3.96092 17.6484 3.79686 16.3125 3.91404 14.9766L3.96092 14.5781H6.21092V11.9062H8.85935V9.28125H14.1328V6.63281H17.2969V11.9062Z" fill="#3A4D54"/>
<path d="M25.875 12.9141C26.0625 11.5312 25.0313 10.4531 24.375 9.9375C23.6485 10.7812 23.5313 13.0312 24.6797 13.9687C24.0235 14.5312 22.6875 15.0703 21.2813 15.0703H4.3594C4.21877 16.5234 4.47658 17.8594 5.06252 19.0078L5.25002 19.3594C5.36721 19.5703 5.50783 19.7578 5.64846 19.9687C6.35158 20.0156 6.9844 20.0391 7.57033 20.0156C8.71877 19.9922 9.65627 19.8516 10.3828 19.6172C10.5 19.5703 10.5938 19.6406 10.6406 19.7344C10.6875 19.8516 10.6172 19.9453 10.5235 19.9922C10.4297 20.0156 10.336 20.0625 10.2188 20.0859C9.65627 20.25 9.0469 20.3437 8.27346 20.3906H8.13284C7.82815 20.4141 7.50002 20.4141 7.14846 20.4141C6.77346 20.4141 6.4219 20.4141 6.00002 20.3906C7.40627 21.9844 9.6094 22.9219 12.375 22.9219C18.2344 22.9219 23.2031 20.3203 25.3828 14.5078C26.9531 14.6719 28.4531 14.2734 29.1328 12.9375C28.0781 12.3047 26.6719 12.5156 25.875 12.9141Z" fill="#00AADA"/>
<path d="M25.875 12.9141C26.0625 11.5312 25.0313 10.4531 24.375 9.9375C23.6485 10.7812 23.5313 13.0312 24.6797 13.9687C24.0235 14.5312 22.6875 15.0703 21.2813 15.0703H5.34378C5.27346 17.2969 6.09378 18.9844 7.57034 19.9922C8.71878 19.9688 9.65628 19.8281 10.3828 19.5937C10.5 19.5469 10.5938 19.6172 10.6407 19.7109C10.6875 19.8281 10.6172 19.9219 10.5235 19.9687C10.4297 19.9922 10.336 20.0391 10.2188 20.0625C9.65628 20.2266 9.00003 20.3437 8.22659 20.3906L8.20315 20.3672C10.1953 21.3984 13.0782 21.375 16.4063 20.1094C20.1094 18.6797 23.5782 15.9609 25.9922 12.8672C25.9453 12.8906 25.8985 12.8906 25.875 12.9141Z" fill="#28B8EB"/>
<path d="M4.38281 16.8281C4.47656 17.6016 4.71094 18.3281 5.0625 19.0078L5.25 19.3594C5.36719 19.5703 5.50781 19.7578 5.64844 19.9687C6.35156 20.0156 6.98437 20.0391 7.57031 20.0156C8.71875 19.9922 9.65625 19.8516 10.3828 19.6172C10.5 19.5703 10.5938 19.6406 10.6406 19.7344C10.6875 19.8516 10.6172 19.9453 10.5234 19.9922C10.4297 20.0156 10.3359 20.0625 10.2187 20.0859C9.65625 20.25 9 20.3672 8.22656 20.4141H8.13281C7.82813 20.4375 7.5 20.4375 7.17187 20.4375C6.79687 20.4375 6.42188 20.4375 6.02344 20.4141C7.42969 22.0078 9.65625 22.9453 12.4219 22.9453C17.4375 22.9453 21.7969 21.0469 24.3281 16.8516H4.38281V16.8281Z" fill="#028BB8"/>
<path d="M5.50781 16.8281C5.8125 18.1875 6.51562 19.2656 7.57031 19.9922C8.71875 19.9687 9.65625 19.8281 10.3828 19.5937C10.5 19.5469 10.5938 19.6172 10.6406 19.7109C10.6875 19.8281 10.6172 19.9219 10.5234 19.9687C10.4297 19.9922 10.3359 20.0391 10.2187 20.0625C9.65625 20.2266 9 20.3437 8.20312 20.3906C10.1953 21.4219 13.0781 21.3984 16.3828 20.1328C18.375 19.3594 20.3203 18.2109 22.0547 16.8281H5.50781Z" fill="#019BC6"/>
<path fill-rule="evenodd" clip-rule="evenodd" d="M6.65625 12.3516H8.95313V14.6484H6.65625V12.3516ZM6.84375 12.5391H7.03125V14.4375H6.84375V12.5391ZM7.17188 12.5391H7.35938V14.4375H7.17188V12.5391ZM7.52344 12.5391H7.71094V14.4375H7.52344V12.5391ZM7.875 12.5391H8.0625V14.4375H7.875V12.5391ZM8.22656 12.5391H8.41406V14.4375H8.22656V12.5391ZM8.57812 12.5391H8.76563V14.4375H8.57812V12.5391ZM9.28125 9.72656H11.5781V12.0234H9.28125V9.72656ZM9.49219 9.91406H9.67969V11.8125H9.49219V9.91406ZM9.82031 9.91406H10.0078V11.8125H9.82031V9.91406ZM10.1719 9.91406H10.3594V11.8125H10.1719V9.91406ZM10.5234 9.91406H10.7109V11.8125H10.5234V9.91406ZM10.8516 9.91406H11.0391V11.8125H10.8516V9.91406ZM11.2031 9.91406H11.3906V11.8125H11.2031V9.91406Z" fill="#00ACD3"/>
<path fill-rule="evenodd" clip-rule="evenodd" d="M9.28125 12.3516H11.5781V14.6484H9.28125V12.3516ZM9.49219 12.5391H9.67969V14.4375H9.49219V12.5391ZM9.82031 12.5391H10.0078V14.4375H9.82031V12.5391ZM10.1719 12.5391H10.3594V14.4375H10.1719V12.5391ZM10.5234 12.5391H10.7109V14.4375H10.5234V12.5391ZM10.8516 12.5391H11.0391V14.4375H10.8516V12.5391ZM11.2031 12.5391H11.3906V14.4375H11.2031V12.5391Z" fill="#23C2EE"/>
<path fill-rule="evenodd" clip-rule="evenodd" d="M11.9297 12.3516H14.2266V14.6484H11.9297V12.3516ZM12.1172 12.5391H12.3047V14.4375H12.1172V12.5391ZM12.4687 12.5391H12.6562V14.4375H12.4687V12.5391ZM12.8203 12.5391H13.0078V14.4375H12.8203V12.5391ZM13.1484 12.5391H13.3359V14.4375H13.1484V12.5391ZM13.5 12.5391H13.6875V14.4375H13.5V12.5391ZM13.8516 12.5391H14.0391V14.4375H13.8516V12.5391Z" fill="#00ACD3"/>
<path fill-rule="evenodd" clip-rule="evenodd" d="M11.9297 9.72656H14.2266V12.0234H11.9297V9.72656ZM12.1172 9.91406H12.3047V11.8125H12.1172V9.91406ZM12.4687 9.91406H12.6562V11.8125H12.4687V9.91406ZM12.8203 9.91406H13.0078V11.8125H12.8203V9.91406ZM13.1484 9.91406H13.3359V11.8125H13.1484V9.91406ZM13.5 9.91406H13.6875V11.8125H13.5V9.91406ZM13.8516 9.91406H14.0391V11.8125H13.8516V9.91406ZM14.5781 12.3516H16.875V14.6484H14.5781V12.3516ZM14.7656 12.5391H14.9531V14.4375H14.7656V12.5391ZM15.1172 12.5391H15.3047V14.4375H15.1172V12.5391ZM15.4453 12.5391H15.6328V14.4375H15.4453V12.5391ZM15.7969 12.5391H15.9844V14.4375H15.7969V12.5391ZM16.1484 12.5391H16.3359V14.4375H16.1484V12.5391ZM16.5 12.5391H16.6875V14.4375H16.5V12.5391Z" fill="#23C2EE"/>
<path fill-rule="evenodd" clip-rule="evenodd" d="M14.5781 9.72656H16.875V12.0234H14.5781V9.72656ZM14.7656 9.91406H14.9531V11.8125H14.7656V9.91406ZM15.1172 9.91406H15.3047V11.8125H15.1172V9.91406ZM15.4453 9.91406H15.6328V11.8125H15.4453V9.91406ZM15.7969 9.91406H15.9844V11.8125H15.7969V9.91406ZM16.1484 9.91406H16.3359V11.8125H16.1484V9.91406ZM16.5 9.91406H16.6875V11.8125H16.5V9.91406Z" fill="#00ACD3"/>
<path fill-rule="evenodd" clip-rule="evenodd" d="M14.5781 7.07812H16.875V9.375H14.5781V7.07812ZM14.7656 7.26562H14.9531V9.16406H14.7656V7.26562ZM15.1172 7.26562H15.3047V9.16406H15.1172V7.26562ZM15.4453 7.26562H15.6328V9.16406H15.4453V7.26562ZM15.7969 7.26562H15.9844V9.16406H15.7969V7.26562ZM16.1484 7.26562H16.3359V9.16406H16.1484V7.26562ZM16.5 7.26562H16.6875V9.16406H16.5V7.26562Z" fill="#23C2EE"/>
<path fill-rule="evenodd" clip-rule="evenodd" d="M17.2266 12.3516H19.5234V14.6484H17.2266V12.3516ZM17.4141 12.5391H17.6016V14.4375H17.4141V12.5391ZM17.7422 12.5391H17.9297V14.4375H17.7422V12.5391ZM18.0937 12.5391H18.2812V14.4375H18.0937V12.5391ZM18.4453 12.5391H18.6328V14.4375H18.4453V12.5391ZM18.7969 12.5391H18.9844V14.4375H18.7969V12.5391ZM19.1484 12.5391H19.3359V14.4375H19.1484V12.5391Z" fill="#00ACD3"/>
<path fill-rule="evenodd" clip-rule="evenodd" d="M11.4375 18.3516C11.7891 18.3516 12.0703 18.6328 12.0703 18.9844C12.0703 19.3359 11.7891 19.6172 11.4375 19.6172C11.0859 19.6172 10.8047 19.3359 10.8047 18.9844C10.8047 18.6328 11.0859 18.3516 11.4375 18.3516Z" fill="#D4EEF1"/>
<path fill-rule="evenodd" clip-rule="evenodd" d="M11.4375 18.5391C11.4844 18.5391 11.5547 18.5391 11.6016 18.5625C11.5547 18.5859 11.5078 18.6563 11.5078 18.7266C11.5078 18.8203 11.6016 18.9141 11.6953 18.9141C11.7656 18.9141 11.8359 18.8672 11.8594 18.8203C11.8828 18.8672 11.8828 18.9375 11.8828 18.9844C11.8828 19.2422 11.6719 19.4297 11.4375 19.4297C11.1797 19.4297 10.9922 19.2188 10.9922 18.9844C10.9922 18.75 11.1797 18.5391 11.4375 18.5391ZM0.257812 17.0625H29.6484C29.0156 16.8984 27.6328 16.6875 27.8438 15.8438C26.6719 17.1797 23.8828 16.7813 23.1563 16.125C22.3594 17.2734 17.7656 16.8281 17.4609 15.9375C16.4766 17.1094 13.4063 17.1094 12.4219 15.9375C12.0938 16.8281 7.5 17.2734 6.72656 16.125C6.02344 16.7813 3.21094 17.1797 2.03906 15.8438C2.29687 16.6641 0.890625 16.8984 0.257812 17.0625Z" fill="#3A4D54"/>
<path d="M13.125 22.9219C11.5547 22.1719 10.7109 21.1641 10.2187 20.0625C9.63281 20.2266 8.92969 20.3438 8.13281 20.3906C7.82813 20.4141 7.5 20.4141 7.17188 20.4141C6.77344 20.4141 6.375 20.4141 5.95312 20.3906C7.35938 21.7969 9.14063 22.8984 12.3984 22.9219H13.125Z" fill="#BFDBE0"/>
<path d="M10.8047 21.0703C10.5937 20.7656 10.3828 20.4141 10.2187 20.0625C9.63281 20.2266 8.92969 20.3438 8.13281 20.3906C8.67187 20.6719 9.46875 20.9531 10.8047 21.0703Z" fill="#D4EEF1"/>
</svg>
