<svg width="30" height="30" viewBox="0 0 30 30" fill="none" xmlns="http://www.w3.org/2000/svg">
<path d="M9.45347 18.3253H9.05855V16.0636C9.05855 15.885 9.07027 15.6675 9.09136 15.4109H9.08246C9.04543 15.5609 9.01144 15.6696 8.98168 15.7369L7.83277 18.3253H7.64035L6.48933 15.7556C6.45699 15.6839 6.423 15.5684 6.38855 15.4109H6.38011C6.3923 15.5459 6.3991 15.7645 6.3991 16.0681V18.3253H6.018V14.9571H6.53949L7.57285 17.3058C7.65066 17.4825 7.70105 17.617 7.72543 17.7089H7.7416C7.79132 17.5697 7.8451 17.432 7.90285 17.2959L8.95871 14.9571H9.45324L9.45347 18.3253ZM10.6694 18.3253H10.2853V15.9199H10.6694V18.3253ZM10.7357 15.0577C10.7357 15.1287 10.7109 15.1877 10.6614 15.2365C10.6382 15.2603 10.6103 15.279 10.5795 15.2916C10.5487 15.3042 10.5156 15.3103 10.4824 15.3096C10.4496 15.3101 10.4171 15.3042 10.3866 15.2921C10.3562 15.28 10.3284 15.262 10.305 15.2391C10.2807 15.2157 10.2616 15.1874 10.249 15.1562C10.2363 15.1249 10.2304 15.0914 10.2316 15.0577C10.2316 14.9883 10.256 14.929 10.305 14.8809C10.3539 14.8329 10.4137 14.8095 10.4824 14.8095C10.5527 14.8095 10.6129 14.8327 10.6614 14.8809C10.7109 14.929 10.7357 14.9883 10.7357 15.0577ZM13.0696 18.214C12.8854 18.3272 12.6651 18.3832 12.4106 18.3832C12.0656 18.3832 11.7883 18.2688 11.576 18.0401C11.37 17.8181 11.2664 17.5317 11.2664 17.1806C11.2664 16.7867 11.3789 16.4677 11.6062 16.2251C11.8321 15.9823 12.1361 15.8611 12.5184 15.8611C12.7275 15.8611 12.9128 15.9019 13.075 15.9832V16.3786C12.8955 16.2525 12.7057 16.1899 12.502 16.1899C12.2571 16.1899 12.0576 16.2755 11.9032 16.4461C11.7421 16.6207 11.6608 16.8544 11.6608 17.1457C11.6608 17.4256 11.7351 17.6473 11.883 17.8106C12.0314 17.9733 12.2289 18.0549 12.4778 18.0549C12.6881 18.0549 12.8852 17.9857 13.0694 17.8481L13.0696 18.214ZM14.9071 16.3102C14.8394 16.2579 14.7417 16.2326 14.613 16.2326C14.4564 16.2326 14.325 16.3024 14.2186 16.4438C14.0976 16.6015 14.0378 16.8197 14.0378 17.0988V18.3251H13.6525V15.9199H14.0378V16.4159H14.047C14.1035 16.2403 14.1909 16.1053 14.3076 16.0097C14.4113 15.9242 14.5417 15.8777 14.6761 15.8782C14.7787 15.8782 14.8546 15.8892 14.9067 15.911L14.9071 16.3102ZM17.0526 17.127C17.0526 16.8192 16.9832 16.5839 16.844 16.4224C16.7093 16.2673 16.5206 16.1899 16.2778 16.1899C16.0385 16.1899 15.8463 16.2682 15.7028 16.425C15.5512 16.5926 15.4753 16.8293 15.4753 17.1363C15.4753 17.4241 15.5475 17.6501 15.6932 17.8111C15.8381 17.9733 16.0331 18.0546 16.2778 18.0546C16.5309 18.0546 16.7247 17.9721 16.8576 17.8083C16.9877 17.648 17.0526 17.4211 17.0526 17.127ZM17.4475 17.1136C17.4475 17.4968 17.3393 17.8048 17.1236 18.0356C16.9071 18.2674 16.6157 18.3832 16.2494 18.3832C15.8885 18.3832 15.6009 18.2674 15.3904 18.0356C15.1839 17.8123 15.0803 17.5174 15.0803 17.1506C15.0803 16.732 15.1975 16.4095 15.4326 16.1806C15.6503 15.9682 15.9412 15.8611 16.3059 15.8611C16.6645 15.8611 16.9448 15.9729 17.1466 16.1944C17.3465 16.417 17.4475 16.7236 17.4475 17.1136ZM19.3568 17.6817C19.3568 17.8786 19.2834 18.0417 19.136 18.1718C18.975 18.3127 18.7539 18.383 18.476 18.383C18.2484 18.383 18.0489 18.3354 17.8795 18.2381V17.8242C18.0679 17.9775 18.2761 18.0546 18.5046 18.0546C18.8095 18.0546 18.9621 17.9424 18.9621 17.7185C18.9633 17.6748 18.955 17.6313 18.9375 17.5911C18.92 17.551 18.8939 17.5152 18.8611 17.4863C18.7933 17.4249 18.6616 17.3513 18.4661 17.2652C18.2648 17.1771 18.1211 17.0866 18.0365 16.9927C17.9348 16.8811 17.8837 16.7365 17.8837 16.5581C17.8837 16.3584 17.9636 16.1923 18.1214 16.0601C18.2796 15.9272 18.4828 15.8609 18.7321 15.8609C18.9232 15.8609 19.0945 15.8981 19.2464 15.9736V16.3613C19.0877 16.2469 18.9063 16.1897 18.7005 16.1897C18.573 16.1897 18.4706 16.2216 18.3942 16.2832C18.3171 16.3465 18.2784 16.4271 18.2784 16.5256C18.2784 16.6322 18.3107 16.7149 18.375 16.7742C18.4321 16.8288 18.5533 16.8959 18.7361 16.9739C18.9414 17.0599 19.0898 17.1492 19.1803 17.2404C19.2975 17.3562 19.3568 17.5031 19.3568 17.6817ZM21.7099 17.127C21.7099 16.8192 21.6403 16.5839 21.5008 16.4224C21.3661 16.2673 21.1771 16.1899 20.9348 16.1899C20.6955 16.1899 20.5033 16.2682 20.3592 16.425C20.2078 16.5926 20.1321 16.8293 20.1321 17.1363C20.1321 17.4241 20.2045 17.6501 20.3486 17.8111C20.4953 17.9733 20.6906 18.0546 20.9348 18.0546C21.1884 18.0546 21.3815 17.9721 21.5146 17.8083C21.6447 17.648 21.7099 17.4211 21.7099 17.127ZM22.1055 17.1136C22.1055 17.4968 21.9963 17.8048 21.7802 18.0356C21.5646 18.2674 21.2732 18.3832 20.9067 18.3832C20.5453 18.3832 20.2579 18.2674 20.0472 18.0356C19.8407 17.8123 19.7371 17.5174 19.7371 17.1506C19.7371 16.732 19.8553 16.4095 20.0892 16.1806C20.3067 15.9682 20.598 15.8611 20.9629 15.8611C21.3218 15.8611 21.6016 15.9729 21.8029 16.1944C22.0033 16.417 22.1055 16.7236 22.1055 17.1136ZM23.8019 15.1027C23.7236 15.0598 23.6355 15.038 23.5462 15.0394C23.2767 15.0394 23.1428 15.2091 23.1428 15.5492V15.9199H23.7065V16.2462H23.1428V18.3253H22.7573V16.2462H22.3483V15.9199H22.7573V15.5299C22.7573 15.2653 22.8384 15.0574 23.0034 14.9079C23.1447 14.7778 23.3175 14.7131 23.523 14.7131C23.6421 14.7131 23.7344 14.7274 23.8017 14.7549L23.8019 15.1027ZM25.3216 18.3012C25.2307 18.3532 25.1097 18.3792 24.96 18.3792C24.5402 18.3792 24.3302 18.1425 24.3302 17.6693V16.2467H23.9175V15.9199H24.3302V15.3331L24.716 15.2081V15.9199H25.3214V16.2467H24.716V17.6039C24.716 17.7652 24.7422 17.8805 24.7975 17.9473C24.8531 18.0164 24.944 18.0502 25.0725 18.0502C25.1683 18.0502 25.2513 18.0246 25.3216 17.9726V18.3012ZM4.50863 27.713C4.50863 27.9016 4.4416 28.0645 4.30543 28.2021C4.24196 28.2686 4.16543 28.3212 4.08065 28.3567C3.99587 28.3922 3.90467 28.4098 3.81277 28.4084C3.72269 28.4097 3.63334 28.392 3.55056 28.3564C3.46777 28.3209 3.39341 28.2683 3.3323 28.2021C3.26868 28.1377 3.21849 28.0613 3.18465 27.9773C3.15081 27.8934 3.134 27.8035 3.13519 27.713C3.13519 27.5191 3.20058 27.3556 3.3323 27.2201C3.39373 27.1545 3.46823 27.1025 3.55099 27.0675C3.63375 27.0325 3.72293 27.0153 3.81277 27.0169C4.00566 27.0169 4.16996 27.0853 4.30543 27.2227C4.4416 27.3605 4.50863 27.5241 4.50863 27.713ZM13.1292 28.267H11.8734L7.31527 21.2278C7.20564 21.0523 7.11311 20.8667 7.03894 20.6735H7.00144C7.03402 20.862 7.05043 21.2667 7.05043 21.8864V28.267H6.01543V19.4358H7.35886L11.7803 26.3639C11.9564 26.6388 12.0768 26.8357 12.1378 26.9543H12.1621C12.1211 26.7005 12.0998 26.2671 12.0998 25.6559V19.4358H13.1287V28.267H13.1292ZM19.7653 28.267H15.0846V19.4358H19.5621V20.3716H16.1191V23.3093H19.3094V24.2456H16.1189V27.3309H19.7653V28.267ZM26.8647 20.3716H24.3208V28.2673H23.286V20.3716H20.7372V19.4353H26.8647V20.3716Z" fill="#1384C8"/>
<path fill-rule="evenodd" clip-rule="evenodd" d="M19.244 10.8586C19.3563 10.5699 19.4836 10.2856 19.5785 9.99121C20.1147 8.32785 20.6458 6.66308 21.1734 4.99691C21.3761 4.35683 21.5983 3.7266 21.9972 3.17652C22.6282 2.30722 23.5071 1.85183 24.5472 1.69269C24.957 1.63182 25.3705 1.60002 25.7847 1.59753C27.0192 1.58582 28.2541 1.59402 29.4888 1.59519C29.5544 1.59519 29.62 1.60199 29.7131 1.60738C29.6829 1.67863 29.6664 1.73042 29.6402 1.77707C29.182 2.59597 28.7327 3.4198 28.2609 4.2305C27.4394 5.64191 26.6165 7.05285 25.7693 8.44878C25.2257 9.34386 24.6363 10.2113 23.9676 11.0208C23.4743 11.618 22.9549 12.1889 22.2928 12.6075C21.8416 12.8928 21.3597 13.0596 20.8127 13.0568C18.8725 13.0463 16.9324 13.054 14.9922 13.0512C14.4154 13.0503 13.9216 12.8307 13.5025 12.4411C12.9018 11.8831 12.5432 11.1727 12.2498 10.4236C11.7145 9.05605 11.4147 7.62261 11.0707 6.2016C10.9094 5.53644 10.7261 4.87644 10.5515 4.21457C10.5403 4.17167 10.5182 4.1316 10.4929 4.06996L10.3577 4.19699C9.60114 4.94863 8.93481 5.77691 8.33856 6.65746C8.17614 6.89746 8.12153 7.21386 8.03082 7.4991C7.69707 8.54675 7.39285 9.60449 7.03145 10.6423C6.68528 11.6365 6.06465 12.4273 5.09457 12.8946C4.53207 13.1673 3.91742 13.3156 3.29246 13.3294C2.35965 13.35 1.42637 13.3524 0.493323 13.3608C0.270198 13.3629 0.259885 13.3446 0.31801 13.1288C0.718088 11.6433 1.22504 10.1958 1.8602 8.79472C2.51504 7.34933 3.28637 5.97097 4.25809 4.71214C4.91973 3.85503 5.65051 3.06425 6.56504 2.46636C7.02887 2.16332 7.52199 1.92378 8.08309 1.86074C8.17543 1.85019 8.26895 1.84363 8.36176 1.84363C10.3488 1.84269 12.3358 1.86285 14.3226 1.83449C15.3883 1.81925 16.1599 2.26925 16.7376 3.12707C17.0969 3.6605 17.354 4.24292 17.5704 4.84457C18.0065 6.05816 18.2777 7.31652 18.584 8.56597C18.7593 9.28105 18.9546 9.99121 19.1416 10.7035C19.1557 10.7569 19.1784 10.808 19.1974 10.86L19.244 10.8586Z" fill="#1384C8"/>
</svg>
