<svg width="30" height="30" viewBox="0 0 30 30" fill="none" xmlns="http://www.w3.org/2000/svg">
<path d="M29.6883 23.0719C28.6195 23.3438 27.9586 23.0836 27.3656 22.193C26.0344 20.1985 24.5648 18.2953 23.1469 16.3571C22.9641 16.1063 22.7742 15.8602 22.5375 15.5485C20.8594 17.8125 19.1836 19.9688 17.6109 22.2117C17.0484 23.0133 16.4578 23.3625 15.4078 23.0789L21.7172 14.611L15.8437 6.96331C16.8539 6.76644 17.5523 6.86722 18.1711 7.7719C19.5375 9.76878 21.0445 11.6696 22.5469 13.6805C24.0586 11.6766 25.5469 9.77347 26.9531 7.79534C27.518 6.99378 28.125 6.68909 29.1398 6.9844C28.3711 8.00394 27.6187 9.00706 26.8617 10.0032C25.8398 11.3461 24.8367 12.7055 23.7773 14.0203C23.4 14.4891 23.4609 14.7938 23.7984 15.2367C25.7578 17.8125 27.6937 20.4141 29.6883 23.0719ZM0.311719 14.4703C0.480469 13.6242 0.592969 12.7617 0.827344 11.9321C2.23359 6.9094 7.99922 4.82112 11.9602 7.93362C14.2805 9.7594 14.857 12.3328 14.7422 15.2344H1.66406C1.46719 20.4399 5.21484 23.5828 9.99141 21.9797C11.6672 21.4172 12.6539 20.1047 13.1484 18.4641C13.3992 17.6414 13.8141 17.5125 14.5875 17.7469C14.1914 19.8 13.2938 21.5157 11.4188 22.5891C8.60625 24.1969 4.59141 23.6766 2.47969 21.443C1.23281 20.1305 0.703125 18.4969 0.46875 16.7321C0.433594 16.4508 0.360937 16.1742 0.304688 15.8953C0.309375 15.4203 0.311719 14.9453 0.311719 14.4703ZM1.6875 14.1211H13.507C13.4297 10.3571 11.0859 7.68284 7.88203 7.6594C4.36641 7.63128 1.83984 10.2422 1.6875 14.1211Z" fill="white"/>
</svg>
