<svg width="30" height="30" viewBox="0 0 30 30" fill="none" xmlns="http://www.w3.org/2000/svg">
<path d="M26.7188 3.25781C26.7188 1.71094 25.4766 0.46875 23.9297 0.46875H6.07031C4.52344 0.46875 3.28125 1.71094 3.28125 3.25781V26.7656C3.28125 28.3125 4.52344 29.5547 6.07031 29.5547H23.9531C25.5 29.5547 26.7422 28.3125 26.7422 26.7656V3.25781H26.7188ZM25.7812 3.28125V26.5547C25.7812 27.6563 24.9609 28.5938 23.8594 28.5938H6.21094C5.10938 28.5938 4.21875 27.6563 4.21875 26.5547V3.28125C4.21875 2.17969 5.13281 1.40625 6.21094 1.40625H23.8359C24.9375 1.40625 25.8047 2.25 25.8047 3.35156L25.7812 3.28125ZM8.67188 25.4766L11.9766 22.1719L8.67188 18.8672V25.4766ZM11.9531 11.2031V4.3125L8.69531 4.33594C8.69531 4.33594 8.71875 15.0937 8.74219 15.0469C18.7734 11.1328 18.0469 13.9219 18.0469 13.9219V25.5L18.0234 25.5469H21.0938V13.9453C21.0938 7.59375 11.9531 11.2031 11.9531 11.2031ZM16.4062 8.4375H19.875C21.75 6.09375 22.3828 4.45312 22.3828 4.45312H18.7969C18.7969 4.45312 17.6484 7.03125 16.4062 8.4375Z" fill="#6762A6"/>
</svg>
