<svg width="30" height="30" viewBox="0 0 30 30" fill="none" xmlns="http://www.w3.org/2000/svg">
<path d="M11.1602 22.9969C11.1602 22.9969 10.0429 23.6471 11.9564 23.8665C14.2748 24.1313 15.4596 24.0933 18.0138 23.6105C18.0138 23.6105 18.6867 24.0312 19.6246 24.3959C13.8967 26.8498 6.66182 24.2536 11.1602 22.9969ZM10.4599 19.7942C10.4599 19.7942 9.20643 20.7221 11.1215 20.9204C13.5982 21.1761 15.5535 21.1969 18.9389 20.5454C18.9389 20.5454 19.406 21.02 20.1417 21.2792C13.2178 23.3042 5.50589 21.4386 10.4599 19.7942Z" fill="#0074BD"/>
<path d="M16.3598 14.3604C17.772 15.9857 15.9895 17.4471 15.9895 17.4471C15.9895 17.4471 19.5729 15.5976 17.9276 13.2806C16.3903 11.1208 15.2119 10.0481 21.592 6.34778C21.592 6.34801 11.577 8.84856 16.3598 14.3604Z" fill="#EA2D2E"/>
<path d="M23.9351 25.3661C23.9351 25.3661 24.7622 26.0482 23.0238 26.5753C19.7187 27.5765 9.2646 27.8784 6.36116 26.6154C5.31796 26.1611 7.27499 25.5314 7.89069 25.3985C8.53265 25.2595 8.89921 25.2848 8.89921 25.2848C7.73835 24.4675 1.39616 26.8903 5.67819 27.5852C17.355 29.478 26.9634 26.7328 23.9351 25.3661ZM11.6981 16.4751C11.6981 16.4751 6.38108 17.7382 9.81538 18.1973C11.2657 18.3914 14.1555 18.3468 16.8492 18.1209C19.05 17.936 21.2585 17.5411 21.2585 17.5411C21.2585 17.5411 20.4832 17.8736 19.9216 18.2566C14.5212 19.6772 4.091 19.0155 7.09405 17.5633C9.6328 16.3354 11.6981 16.4751 11.6981 16.4751ZM21.2365 21.8065C26.7258 18.9548 24.1875 16.2143 22.4159 16.5834C21.9827 16.6736 21.7884 16.7522 21.7884 16.7522C21.7884 16.7522 21.9497 16.4993 22.2572 16.3905C25.7618 15.1589 28.4566 20.024 21.1268 21.9511C21.1268 21.9506 21.2109 21.8744 21.2365 21.8065Z" fill="#0074BD"/>
<path d="M17.9275 0.371948C17.9275 0.371948 20.9669 3.4132 15.044 8.08828C10.2942 11.8397 13.961 13.9781 15.0424 16.4224C12.2695 13.9209 10.2356 11.7185 11.5999 9.6689C13.6033 6.66093 19.1536 5.20195 17.9275 0.371948Z" fill="#EA2D2E"/>
<path d="M12.2377 29.5361C17.5055 29.8729 25.5971 29.3486 25.7886 26.8558C25.7886 26.8558 25.4204 27.8008 21.4346 28.5506C16.9379 29.3972 11.3907 29.2985 8.10168 28.7554C8.10168 28.7557 8.77551 29.3135 12.2377 29.5361Z" fill="#0074BD"/>
</svg>
