<svg width="30" height="30" viewBox="0 0 30 30" fill="none" xmlns="http://www.w3.org/2000/svg">
<path d="M0 15C0 19.3577 6.71578 22.8907 15 22.8907C23.2842 22.8907 30 19.3577 30 15C30 10.6422 23.284 7.10925 15 7.10925C6.71578 7.10925 0 10.6422 0 15Z" fill="url(#paint0_radial_19_287)"/>
<path d="M15 22.3047C22.9605 22.3047 29.4141 19.034 29.4141 15C29.4141 10.9654 22.9605 7.69519 15 7.69519C7.03945 7.69519 0.585938 10.9654 0.585938 15C0.585938 19.034 7.03945 22.3047 15 22.3047Z" fill="#777BB3"/>
<path d="M8.14963 15.9056C8.80424 15.9056 9.29267 15.7849 9.60182 15.547C9.90791 15.3112 10.1191 14.9032 10.2299 14.3341C10.3331 13.8021 10.2937 13.4308 10.1128 13.2302C9.92807 13.0253 9.52846 12.9215 8.92518 12.9215H7.87893L7.29932 15.9056H8.14963ZM4.72799 19.5813C4.70398 19.5812 4.68028 19.5759 4.65859 19.5656C4.63689 19.5554 4.61774 19.5404 4.60251 19.5219C4.58727 19.5033 4.57633 19.4816 4.57047 19.4583C4.56461 19.4351 4.56398 19.4108 4.56861 19.3872L6.10541 11.4799C6.11267 11.4429 6.13252 11.4096 6.16158 11.3856C6.19064 11.3617 6.22711 11.3485 6.26478 11.3484H9.57744C10.6185 11.3484 11.3934 11.631 11.8806 12.1886C12.37 12.7488 12.5214 13.5325 12.3299 14.5171C12.2519 14.9182 12.1178 15.2906 11.9315 15.6243C11.7375 15.9676 11.4901 16.2778 11.1984 16.5431C10.8395 16.8787 10.4334 17.1225 9.99205 17.2657C9.55799 17.4072 9.00018 17.4789 8.33502 17.4789H6.99346L6.61049 19.4496C6.60326 19.4866 6.58336 19.5201 6.5542 19.5441C6.52504 19.5681 6.48843 19.5813 6.45064 19.5813H4.72799Z" fill="black"/>
<path d="M8.01328 13.0842H8.92524C9.65344 13.0842 9.90633 13.2441 9.99234 13.3395C10.1346 13.4974 10.1618 13.8309 10.0699 14.3032C9.96703 14.8322 9.77625 15.2074 9.50274 15.4179C9.22289 15.6335 8.76727 15.7427 8.14969 15.7427H7.49672L8.01352 13.0845L8.01328 13.0842ZM9.5775 11.1858H6.26508C6.18954 11.1858 6.11635 11.212 6.05804 11.2601C5.99972 11.3081 5.9599 11.3749 5.94539 11.449L4.40859 19.3566C4.39952 19.4037 4.40096 19.4522 4.4128 19.4987C4.42465 19.5452 4.44662 19.5884 4.47714 19.6255C4.50766 19.6625 4.54597 19.6923 4.58934 19.7128C4.63272 19.7333 4.68008 19.7439 4.72805 19.744H6.4507C6.52624 19.7439 6.59939 19.7176 6.65767 19.6695C6.71594 19.6215 6.7557 19.5547 6.77016 19.4805L7.12758 17.6416H8.33484C9.01734 17.6416 9.59203 17.5671 10.0427 17.4204C10.5061 17.2699 10.9324 17.0147 11.3098 16.6617C11.6136 16.385 11.8714 16.0616 12.0736 15.7038C12.2684 15.3553 12.4085 14.9663 12.4896 14.5481C12.6912 13.5115 12.5273 12.6816 12.003 12.0816C11.4837 11.487 10.6676 11.1855 9.5775 11.1855V11.1858ZM7.1018 16.068H8.14969C8.84414 16.068 9.36141 15.9375 9.70125 15.6755C10.0413 15.4139 10.2703 14.977 10.3898 14.3651C10.5035 13.7773 10.4517 13.3627 10.234 13.121C10.0158 12.8796 9.57985 12.7587 8.92524 12.7587H7.74492L7.1018 16.068ZM9.57774 11.5106C10.5743 11.5106 11.3011 11.7724 11.7581 12.2953C12.2152 12.8184 12.3525 13.5485 12.1706 14.4858C12.0952 14.872 11.9684 15.225 11.7898 15.5447C11.6107 15.8648 11.3773 16.1573 11.0888 16.4229C10.7447 16.7447 10.3629 16.9741 9.94219 17.1108C9.52172 17.2477 8.98594 17.3159 8.33508 17.3159H6.85945L6.45094 19.4182H4.72828L6.26531 11.5106H9.57774Z" fill="white"/>
<path d="M16.2795 17.479C16.2555 17.479 16.2317 17.4737 16.21 17.4635C16.1883 17.4533 16.1691 17.4383 16.1538 17.4198C16.1385 17.4013 16.1275 17.3796 16.1216 17.3563C16.1157 17.333 16.115 17.3087 16.1196 17.2852L16.7993 13.7864C16.8642 13.4536 16.8483 13.215 16.7548 13.1137C16.6974 13.0521 16.5253 12.9488 16.0165 12.9488H14.7846L13.9301 17.3475C13.9228 17.3845 13.9028 17.4179 13.8736 17.4418C13.8444 17.4658 13.8078 17.4788 13.77 17.4787H12.0614C12.0374 17.4788 12.0137 17.4735 11.992 17.4633C11.9703 17.453 11.9511 17.4382 11.9358 17.4197C11.9205 17.4012 11.9095 17.3795 11.9035 17.3563C11.8976 17.333 11.8968 17.3087 11.9014 17.2852L13.4384 9.37758C13.4457 9.34053 13.4656 9.30717 13.4947 9.28319C13.5239 9.2592 13.5605 9.24609 13.5982 9.24609H15.3068C15.3308 9.24608 15.3545 9.25137 15.3763 9.26158C15.398 9.2718 15.4172 9.28669 15.4325 9.30518C15.4478 9.32368 15.4588 9.34533 15.4647 9.36858C15.4707 9.39183 15.4714 9.41612 15.4669 9.43969L15.0961 11.3484H16.421C17.4305 11.3484 18.1149 11.5261 18.5135 11.8924C18.9197 12.2658 19.0467 12.8627 18.8904 13.6673L18.1753 17.3475C18.168 17.3845 18.1481 17.4178 18.1189 17.4417C18.0898 17.4657 18.0532 17.4788 18.0155 17.4787H16.2795V17.479Z" fill="black"/>
<path d="M15.3071 9.08325H13.5983C13.5227 9.08327 13.4495 9.10956 13.3911 9.15762C13.3328 9.20568 13.293 9.27252 13.2786 9.34669L11.7418 17.254C11.7327 17.3012 11.7341 17.3497 11.7459 17.3962C11.7577 17.4427 11.7797 17.4861 11.8102 17.5231C11.8407 17.5601 11.8791 17.59 11.9224 17.6105C11.9658 17.631 12.0132 17.6416 12.0612 17.6417H13.7701C13.8456 17.6417 13.9188 17.6154 13.9772 17.5673C14.0355 17.5193 14.0753 17.4524 14.0897 17.3783L14.9187 13.1115H16.0161C16.5242 13.1115 16.6311 13.22 16.6351 13.2249C16.666 13.2577 16.7065 13.4112 16.6395 13.7555L15.9598 17.254C15.9507 17.3012 15.9521 17.3497 15.964 17.3963C15.9758 17.4428 15.9978 17.4861 16.0283 17.5232C16.0589 17.5602 16.0972 17.5901 16.1407 17.6105C16.1841 17.631 16.2315 17.6417 16.2795 17.6417H18.0158C18.0913 17.6416 18.1644 17.6153 18.2227 17.5672C18.281 17.5192 18.3208 17.4524 18.3352 17.3783L19.0503 13.6986C19.2179 12.8347 19.0744 12.1868 18.6237 11.7727C18.1934 11.3775 17.4729 11.1856 16.4211 11.1856H15.2937L15.6268 9.47114C15.6359 9.42399 15.6345 9.37539 15.6227 9.32883C15.6109 9.28227 15.5889 9.23891 15.5584 9.20184C15.5278 9.16477 15.4894 9.13491 15.446 9.11441C15.4026 9.09391 15.3551 9.08327 15.3071 9.08325ZM15.3071 9.40903L14.8986 11.5109H16.4211C17.379 11.5109 18.0399 11.6783 18.4032 12.0125C18.7672 12.3467 18.8759 12.8879 18.7308 13.6367L18.0155 17.3161H16.2795L16.9594 13.8174C17.0368 13.4194 17.0082 13.148 16.8739 13.0032C16.7396 12.8586 16.4536 12.7861 16.0165 12.7861H14.6504L13.7701 17.3159H12.061L13.598 9.40833H15.3071V9.40903Z" fill="white"/>
<path d="M21.5943 15.9056C22.2489 15.9056 22.7376 15.7849 23.047 15.547C23.3526 15.3112 23.564 14.9032 23.6749 14.3341C23.778 13.8021 23.7389 13.4308 23.5577 13.2302C23.373 13.0253 22.9734 12.9215 22.3701 12.9215H21.3241L20.744 15.9056H21.5943ZM18.1734 19.5813C18.1494 19.5813 18.1256 19.576 18.1039 19.5658C18.0821 19.5555 18.0629 19.5406 18.0476 19.522C18.0323 19.5035 18.0213 19.4818 18.0154 19.4584C18.0096 19.4351 18.0089 19.4108 18.0136 19.3872L19.5504 11.4799C19.5576 11.4428 19.5776 11.4095 19.6067 11.3855C19.6359 11.3615 19.6724 11.3484 19.7102 11.3484H23.0226C24.0637 11.3484 24.8386 11.631 25.3256 12.1886C25.8152 12.7488 25.9664 13.5325 25.7749 14.5171C25.7017 14.905 25.5673 15.2787 25.3767 15.6243C25.1827 15.9676 24.9352 16.2777 24.6436 16.5431C24.285 16.8787 23.8783 17.1225 23.4372 17.2657C23.0032 17.4072 22.4454 17.4789 21.78 17.4789H20.4386L20.0559 19.4496C20.0487 19.4867 20.0287 19.5201 19.9995 19.5442C19.9703 19.5682 19.9336 19.5813 19.8958 19.5813H18.1734Z" fill="black"/>
<path d="M21.4582 13.0842H22.3702C23.0984 13.0842 23.3513 13.2441 23.4371 13.3395C23.58 13.4974 23.6067 13.8309 23.5151 14.3032C23.412 14.8322 23.2212 15.2074 22.9477 15.4179C22.6676 15.6335 22.212 15.7427 21.5946 15.7427H20.9417L21.4582 13.0842ZM23.0224 11.1858H19.71C19.6345 11.1858 19.5614 11.2121 19.5031 11.2601C19.4449 11.3081 19.4051 11.3749 19.3906 11.449L17.8535 19.3566C17.8445 19.4037 17.8459 19.4522 17.8578 19.4987C17.8696 19.5452 17.8916 19.5885 17.9222 19.6256C17.9527 19.6626 17.991 19.6924 18.0344 19.7128C18.0778 19.7333 18.1252 19.744 18.1732 19.744H19.8959C19.9714 19.7439 20.0446 19.7176 20.1028 19.6695C20.1611 19.6215 20.2009 19.5547 20.2153 19.4805L20.5728 17.6416H21.7798C22.4621 17.6416 23.037 17.5671 23.4874 17.4204C23.951 17.2699 24.3774 17.0147 24.7549 16.6615C25.0587 16.3848 25.3164 16.0615 25.5185 15.7038C25.7135 15.3553 25.8532 14.9663 25.9346 14.5481C26.1361 13.5115 25.9725 12.6816 25.448 12.0816C24.9286 11.487 24.1128 11.1855 23.0222 11.1855L23.0224 11.1858ZM20.5467 16.068H21.5944C22.2891 16.068 22.8061 15.9375 23.1464 15.6755C23.4863 15.4139 23.7155 14.977 23.8346 14.3651C23.9487 13.7773 23.8969 13.3627 23.6787 13.121C23.4607 12.8796 23.0246 12.7587 22.3702 12.7587H21.1901L20.5467 16.068ZM23.0224 11.5106C24.0188 11.5106 24.746 11.7724 25.2028 12.2953C25.6599 12.8184 25.7974 13.5485 25.6151 14.4858C25.5401 14.872 25.4131 15.225 25.2345 15.5447C25.0557 15.8648 24.822 16.1573 24.5332 16.4229C24.1894 16.7447 23.8074 16.9741 23.3867 17.1108C22.9664 17.2477 22.4309 17.3159 21.7798 17.3159H20.3044L19.8954 19.4182H18.1728L19.7098 11.5106H23.0224Z" fill="white"/>
<defs>
<radialGradient id="paint0_radial_19_287" cx="0" cy="0" r="1" gradientUnits="userSpaceOnUse" gradientTransform="translate(9.00609 9.88332) scale(19.6972)">
<stop stop-color="#AEB2D5"/>
<stop offset="0.3" stop-color="#AEB2D5"/>
<stop offset="0.75" stop-color="#484C89"/>
<stop offset="1" stop-color="#484C89"/>
</radialGradient>
</defs>
</svg>
