<svg width="30" height="30" viewBox="0 0 30 30" fill="none" xmlns="http://www.w3.org/2000/svg">
<g clip-path="url(#clip0_19_299)">
<mask id="mask0_19_299" style="mask-type:alpha" maskUnits="userSpaceOnUse" x="-1" y="0" width="31" height="30">
<path fill-rule="evenodd" clip-rule="evenodd" d="M21.2735 29.7951C21.5122 29.8882 21.7675 29.9312 22.0236 29.9213C22.2796 29.9115 22.5309 29.8491 22.7618 29.7379L28.9382 26.7658C29.2563 26.6127 29.5247 26.3729 29.7125 26.074C29.9004 25.7751 30 25.4292 30 25.0762V4.92396C30 4.5709 29.9004 4.22499 29.7126 3.92604C29.5248 3.6271 29.2564 3.38725 28.9382 3.23411L22.7618 0.262472C22.4127 0.094544 22.0202 0.0392541 21.6384 0.104255C21.2565 0.169255 20.9044 0.351332 20.6306 0.625285L8.80637 11.4126L3.65621 7.50302C3.42389 7.32662 3.13714 7.23712 2.84572 7.25005C2.55431 7.26298 2.27661 7.37752 2.06082 7.5738L0.408946 9.07638C0.280215 9.19346 0.17734 9.33613 0.106901 9.49524C0.0364622 9.65436 1.06535e-05 9.82643 -0.000121709 10.0004C-0.000254071 10.1745 0.0359357 10.3466 0.106132 10.5058C0.176329 10.665 0.278987 10.8078 0.40754 10.9251L4.87402 15L0.407774 19.0751C0.279292 19.1923 0.176695 19.3352 0.106542 19.4944C0.0363888 19.6536 0.000222523 19.8256 0.000354871 19.9996C0.00048722 20.1736 0.0369153 20.3456 0.107311 20.5047C0.177706 20.6638 0.28052 20.8065 0.409181 20.9236L2.06106 22.4261C2.2768 22.6225 2.55448 22.7371 2.84591 22.7501C3.13734 22.7631 3.42411 22.6736 3.65645 22.4972L8.8066 18.5878L20.6308 29.3749C20.8137 29.558 21.0324 29.7012 21.2735 29.7951ZM22.5044 8.18974L13.5328 15L22.5046 21.8104L22.5044 8.18974Z" fill="white"/>
</mask>
<g mask="url(#mask0_19_299)">
<path d="M28.9386 3.23895L22.7572 0.262386C22.408 0.0943464 22.0153 0.0389965 21.6333 0.103998C21.2513 0.168999 20.899 0.351136 20.625 0.625199L0.389572 19.075C0.260994 19.1922 0.15831 19.335 0.0880949 19.4942C0.0178796 19.6534 -0.0183205 19.8255 -0.0181881 19.9995C-0.0180557 20.1735 0.0184062 20.3456 0.0888636 20.5047C0.159321 20.6638 0.262222 20.8064 0.390979 20.9235L2.04379 22.4261C2.25973 22.6224 2.53756 22.737 2.82913 22.75C3.12069 22.7629 3.4076 22.6735 3.64012 22.4971L28.0083 4.01075C28.8258 3.39059 30 3.97371 30 4.99981V4.92809C30 4.57514 29.9004 4.22937 29.7126 3.93052C29.5248 3.63166 29.2565 3.39211 28.9386 3.23895Z" fill="#0065A9"/>
<g filter="url(#filter0_d_19_299)">
<path d="M28.9386 26.7611L22.7572 29.7372C22.4081 29.9053 22.0153 29.9608 21.6334 29.8958C21.2514 29.8309 20.899 29.6489 20.625 29.3749L0.389572 10.9249C0.260994 10.8077 0.15831 10.6649 0.0880949 10.5057C0.0178796 10.3464 -0.0183205 10.1743 -0.0181881 10.0003C-0.0180557 9.82632 0.0184062 9.65426 0.0888636 9.49516C0.159321 9.33606 0.262222 9.19342 0.390979 9.07638L2.04379 7.5738C2.25973 7.37745 2.53756 7.26286 2.82913 7.24989C3.12069 7.23692 3.4076 7.32639 3.64012 7.50278L28.0083 25.9889C28.8258 26.6093 30 26.0261 30 25V25.0718C30 25.4247 29.9004 25.7705 29.7126 26.0693C29.5248 26.3682 29.2565 26.608 28.9386 26.7611Z" fill="#007ACC"/>
</g>
<g filter="url(#filter1_d_19_299)">
<path d="M22.7573 29.7379C22.4081 29.9058 22.0153 29.9611 21.6333 29.896C21.2513 29.831 20.899 29.6489 20.625 29.3748C21.3169 30.0667 22.5 29.5766 22.5 28.5981V1.40148C22.5 0.422962 21.3169 -0.0671162 20.625 0.624993C20.899 0.350963 21.2513 0.168834 21.6333 0.103795C22.0153 0.0387556 22.4081 0.0940206 22.7573 0.261946L28.9376 3.23429C29.2558 3.38733 29.5244 3.62713 29.7123 3.92609C29.9003 4.22504 30 4.571 30 4.92413V25.0762C30 25.4293 29.9003 25.7753 29.7123 26.0742C29.5244 26.3732 29.2558 26.613 28.9376 26.766L22.7573 29.7379Z" fill="#1F9CF0"/>
</g>
<path style="mix-blend-mode:overlay" opacity="0.25" fill-rule="evenodd" clip-rule="evenodd" d="M21.2554 29.7951C21.4941 29.8882 21.7494 29.9311 22.0054 29.9213C22.2614 29.9114 22.5126 29.849 22.7435 29.7379L28.9199 26.7658C29.2381 26.6127 29.5065 26.3729 29.6943 26.0739C29.8821 25.775 29.9817 25.429 29.9817 25.076V4.92396C29.9817 4.5709 29.8821 4.22499 29.6943 3.92605C29.5065 3.6271 29.2381 3.38725 28.9199 3.23411L22.7435 0.262472C22.3944 0.094544 22.0019 0.0392541 21.6201 0.104255C21.2382 0.169255 20.8861 0.351332 20.6123 0.625285L8.78807 11.4126L3.63791 7.50325C3.40559 7.32686 3.11884 7.23736 2.82742 7.25029C2.536 7.26322 2.25831 7.37776 2.04252 7.57404L0.390644 9.07661C0.261945 9.19372 0.159099 9.33639 0.0886807 9.4955C0.0182624 9.65462 -0.0181778 9.82668 -0.0183102 10.0007C-0.0184425 10.1747 0.0177359 10.3468 0.087912 10.506C0.158088 10.6652 0.260717 10.8081 0.389238 10.9254L4.85572 15L0.389472 19.0748C0.26092 19.1921 0.158262 19.3349 0.0880647 19.4941C0.0178679 19.6534 -0.0183218 19.8255 -0.0181894 19.9995C-0.0180571 20.1735 0.0183945 20.3456 0.0888334 20.5047C0.159272 20.6638 0.262148 20.8065 0.390879 20.9236L2.04275 22.4261C2.25852 22.6225 2.5362 22.737 2.82761 22.75C3.11903 22.763 3.40579 22.6735 3.63814 22.4972L8.78853 18.5876L20.6128 29.3749C20.7955 29.558 21.0144 29.7011 21.2554 29.7951ZM22.4863 8.1895L13.5145 15L22.4863 21.8102V8.1895Z" fill="url(#paint0_linear_19_299)"/>
</g>
</g>
<defs>
<filter id="filter0_d_19_299" x="-8.35153" y="-1.08468" width="46.6849" height="39.3403" filterUnits="userSpaceOnUse" color-interpolation-filters="sRGB">
<feFlood flood-opacity="0" result="BackgroundImageFix"/>
<feColorMatrix in="SourceAlpha" type="matrix" values="0 0 0 0 0 0 0 0 0 0 0 0 0 0 0 0 0 0 127 0" result="hardAlpha"/>
<feOffset/>
<feGaussianBlur stdDeviation="4.16667"/>
<feColorMatrix type="matrix" values="0 0 0 0 0 0 0 0 0 0 0 0 0 0 0 0 0 0 0.25 0"/>
<feBlend mode="overlay" in2="BackgroundImageFix" result="effect1_dropShadow_19_299"/>
<feBlend mode="normal" in="SourceGraphic" in2="effect1_dropShadow_19_299" result="shape"/>
</filter>
<filter id="filter1_d_19_299" x="12.2917" y="-8.25607" width="26.0417" height="46.512" filterUnits="userSpaceOnUse" color-interpolation-filters="sRGB">
<feFlood flood-opacity="0" result="BackgroundImageFix"/>
<feColorMatrix in="SourceAlpha" type="matrix" values="0 0 0 0 0 0 0 0 0 0 0 0 0 0 0 0 0 0 127 0" result="hardAlpha"/>
<feOffset/>
<feGaussianBlur stdDeviation="4.16667"/>
<feColorMatrix type="matrix" values="0 0 0 0 0 0 0 0 0 0 0 0 0 0 0 0 0 0 0.25 0"/>
<feBlend mode="overlay" in2="BackgroundImageFix" result="effect1_dropShadow_19_299"/>
<feBlend mode="normal" in="SourceGraphic" in2="effect1_dropShadow_19_299" result="shape"/>
</filter>
<linearGradient id="paint0_linear_19_299" x1="14.9817" y1="0.0772931" x2="14.9817" y2="29.9226" gradientUnits="userSpaceOnUse">
<stop stop-color="white"/>
<stop offset="1" stop-color="white" stop-opacity="0"/>
</linearGradient>
<clipPath id="clip0_19_299">
<rect width="30" height="30" fill="white"/>
</clipPath>
</defs>
</svg>
